#!OML:ASF F:\VICON\USERDATA\INSTALL\rory3\rory3.ASF
:FULLY-SPECIFIED
:DEGREES
279
root 0.652083 17.8284 21.0827 -2.33687 -0.182446 2.6716
lowerback 10.5571 -0.944219 -3.02153
upperback 0.597087 -1.54068 1.36614
thorax -5.18164 -0.67397 3.36269
lowerneck -15.5816 -2.51278 -1.97931
upperneck 21.9141 -3.21334 0.831785
head 9.54336 -1.56913 0.209021
rclavicle -9.24349e-015 2.46493e-014
rhumerus -32.212 -23.6273 -75.4754
rradius 25.9902
rwrist 3.50568
rhand -19.7621 21.8452
rfingers 7.12502
rthumb 6.56948 -8.03289
lclavicle -9.24349e-015 2.46493e-014
lhumerus -21.7535 -6.2877 82.1213
lradius 26.8614
lwrist 6.2809
lhand -26.6679 25.5681
lfingers 7.12502
lthumb -0.0993309 55.5478
rfemur -32.1441 1.43371 18.1495
rtibia 36.8937
rfoot -4.86682 -10.3558
rtoes -0.335836
lfemur 6.13307 -1.8502 -28.0124
ltibia 19.9758
lfoot -16.731 1.95301
ltoes -1.78073
280
root 0.634929 17.8189 21.2463 -2.05629 -0.13154 2.49365
lowerback 10.5413 -0.987209 -2.94851
upperback 0.560279 -1.58462 1.44483
thorax -5.20774 -0.69538 3.41074
lowerneck -15.56 -2.55615 -2.11288
upperneck 21.6889 -3.29221 1.06342
head 9.46835 -1.59117 0.302563
rclavicle -1.59525e-014 -3.97569e-015
rhumerus -32.4187 -23.9042 -75.2787
rradius 25.6972
rwrist 3.71494
rhand -19.63 22.6796
rfingers 7.12502
rthumb 6.69696 -7.19445
lclavicle -1.59525e-014 -3.97569e-015
lhumerus -21.4469 -6.49086 81.9726
lradius 27.4709
lwrist 6.24019
lhand -28.679 26.3658
lfingers 7.12502
lthumb -2.04172 56.3358
rfemur -31.9246 2.49969 17.9534
rtibia 33.3088
rfoot -4.65872 -11.0858
rtoes 0.523196
lfemur 6.7566 -1.68886 -27.7363
ltibia 19.2269
lfoot -16.7727 1.98428
ltoes -2.64615
281
root 0.619705 17.811 21.4172 -1.79846 0.103648 2.46617
lowerback 10.4952 -1.07492 -3.01826
upperback 0.478986 -1.70504 1.51492
thorax -5.25377 -0.75011 3.54162
lowerneck -15.609 -2.57397 -2.1736
upperneck 21.7026 -3.29972 1.06061
head 9.48358 -1.59966 0.310024
rclavicle 2.34566e-014 -1.27222e-014
rhumerus -32.7547 -24.4201 -74.8176
rradius 25.3284
rwrist 4.326
rhand -19.9529 22.4376
rfingers 7.12502
rthumb 6.38526 -7.44617
lclavicle 2.34566e-014 -1.27222e-014
lhumerus -21.2803 -6.52094 81.9153
lradius 28.0909
lwrist 6.13862
lhand -29.9159 26.8282
lfingers 7.12502
lthumb -3.23621 56.7834
rfemur -31.5871 3.53712 17.4748
rtibia 29.7824
rfoot -4.8156 -12.0567
rtoes 1.28939
lfemur 7.5171 -1.66421 -27.6069
ltibia 18.4638
lfoot -16.7295 1.85181
ltoes -2.47101
282
root 0.608083 17.7954 21.598 -1.58652 0.495052 2.85644
lowerback 10.2279 -1.21516 -3.47843
upperback 0.535665 -1.93953 1.47881
thorax -5.01142 -0.862324 3.78645
lowerneck -16.035 -2.5528 -2.13259
upperneck 21.9202 -3.25377 0.97474
head 9.63652 -1.58161 0.272912
rclavicle 2.48481e-015 4.77083e-015
rhumerus -32.89 -24.8487 -74.5275
rradius 25.0367
rwrist 4.97019
rhand -20.9574 21.8604
rfingers 7.12502
rthumb 5.41546 -8.05038
lclavicle 2.48481e-015 4.77083e-015
lhumerus -20.6697 -6.37373 81.7994
lradius 28.3304
lwrist 6.1011
lhand -29.779 26.8705
lfingers 7.12502
lthumb -3.10404 56.8277
rfemur -31.1659 4.28459 16.5154
rtibia 26.3331
rfoot -5.46443 -13.0568
rtoes 0.44876
lfemur 8.42651 -1.79973 -27.9402
ltibia 17.675
lfoot -16.6706 1.59612
ltoes -0.738711
283
root 0.596831 17.78 21.792 -1.54298 0.750326 3.16074
lowerback 9.88868 -1.2832 -3.78383
upperback 0.700677 -2.05621 1.38765
thorax -4.6307 -0.927151 3.86244
lowerneck -16.23 -2.53979 -2.04185
upperneck 21.8472 -3.27053 1.04177
head 9.64697 -1.57294 0.276811
rclavicle 2.49972e-014 -1.43125e-014
rhumerus -32.9253 -25.6409 -74.2197
rradius 24.5768
rwrist 5.73396
rhand -21.4836 21.8139
rfingers 7.12502
rthumb 4.90741 -8.10923
lclavicle 2.49972e-014 -1.43125e-014
lhumerus -19.999 -6.67137 81.6542
lradius 28.5656
lwrist 6.41056
lhand -29.3578 27.4434
lfingers 7.12502
lthumb -2.69722 57.4061
rfemur -30.5639 5.20494 15.6216
rtibia 23.1104
rfoot -6.33462 -13.9516
rtoes 0.324366
lfemur 9.53861 -1.7025 -28.1848
ltibia 16.738
lfoot -16.7418 0.882768
ltoes -1.2906
